<?xml version="1.0" encoding="UTF-8"?>
<svg xmlns="http://www.w3.org/2000/svg" xmlns:xlink="http://www.w3.org/1999/xlink" width="512" height="512" viewBox="0 0 57 48" version="1.1"><!-- Generator: Sketch 51.3 (57544) - http://www.bohemiancoding.com/sketch --><title>040 - Guide dog access</title><desc>Created with Sketch.</desc><defs/><g id="Page-1" stroke="none" stroke-width="1" fill="none" fill-rule="evenodd"><g id="040---Guide-dog-access" fill="#000000" fill-rule="nonzero"><path d="M23.7,18.361 C18.7940854,16.8295006 14.8665776,13.124409 13.052,8.316 C13.0178032,8.21414417 13.0002448,8.10744287 13,8 C12.99,7.815 12.794,6 9,6 C5.046,6 5,9.837 5,10 C5.00017662,10.379026 4.78605165,10.7255754 4.447,10.895 L0.929,12.653 C0.831481493,13.5176198 1.04952413,14.3883699 1.543,15.105 C2.18465336,15.7593226 3.08782842,16.088318 4,16 L7.249,16 C6.67731577,13.9814843 6.59878003,11.8551891 7.02,9.8 C7.14473756,9.27683436 7.66093018,8.94603195 8.18836815,9.05125045 C8.71580612,9.15646894 9.0655542,9.66001768 8.98,10.191 C8.771,11.254 8.45,14.368 9.403,15.901 C10.5702196,15.4075462 11.5420916,14.5428788 12.168,13.441 C12.474518,12.9814991 13.0954991,12.857482 13.555,13.164 C14.0145009,13.4705181 14.138518,14.0914991 13.832,14.551 C12.9652919,16.0286113 11.6269086,17.1718724 10.032,17.797 C10.1104873,19.206652 10.2811858,20.6096528 10.543,21.997 L19.986,21.997 L23.7,18.361 Z" id="Shape"/><path d="M44.9,2.545 C45.182608,2.25669614 45.2641382,1.82673794 45.1066917,1.45498938 C44.9492453,1.08324082 44.5837087,0.842628546 44.18,0.845 C43.9125705,0.8452088 43.6565536,0.953384936 43.47,1.145 L26.4,18.511 L21.1,23.705 L21.094,23.711 C21.0676788,23.7304918 21.040304,23.7485191 21.012,23.765 C20.8613672,23.9069724 20.6619924,23.9857201 20.455,23.985 C20.434,23.985 20.416,23.997 20.395,23.997 L11.01,23.997 C11.1953333,24.6876667 11.4026667,25.3543333 11.632,25.997 L22,25.997 C22.5522847,25.997 23,26.4447153 23,26.997 L23,33.307 C23.249,33.257 23.5,33.207 23.771,33.143 C24.171,33.051 24.588,32.934 25,32.824 L25,23.105 C25.000026,22.9734915 25.0262001,22.8433007 25.077,22.722 C25.1293809,22.6010163 25.2051677,22.4915842 25.3,22.4 L30.18,17.62 L44.9,2.545 Z" id="Shape"/><path d="M20,33.64 C20.327,33.64 20.661,33.623 21,33.596 L21,28 L12.472,28 C13.2224866,29.6162807 14.302194,31.0580476 15.642,32.233 C15.6725928,32.2670748 15.7013022,32.3027947 15.728,32.34 C15.7786361,32.3909667 15.823568,32.4472991 15.862,32.508 C15.8938829,32.5717701 15.9186971,32.6388353 15.936,32.708 C15.9560334,32.75065 15.9727495,32.7947807 15.986,32.84 C16.506026,35.8704281 16.8446286,38.9292052 17,42 C16.9609952,44.1190794 16.1449909,46.1500155 14.707,47.707 L14.414,48 L15.753,48 C16.8191385,47.4511667 17.7823314,46.7220902 18.6,45.845 C18.8156778,45.6102385 18.955141,45.3156225 19,45 L19,34.64 C19,34.0877153 19.4477153,33.64 20,33.64 Z" id="Shape"/><path d="M21,35.6 L21,45 C20.9665856,45.7706859 20.6725428,46.5072031 20.166,47.089 C19.8926264,47.4178657 19.5915206,47.7226517 19.266,48 L19.753,48 C21.18,47.244 23,45.856 23,45 L23,35.347 C22.7,35.4 22.4,35.447 22.122,35.483 C21.751,35.537 21.375,35.576 21,35.6 Z" id="Shape"/><path d="M52.184,25.926 C50.4,22.84 48.185,19 42,19 C40.1109202,18.9772815 38.2221822,19.0681119 36.344,19.272 C34.6567579,19.4703629 32.953819,19.4981701 31.261,19.355 L27,23.53 L27,32.244 C27.882,31.967 28.769,31.678 29.641,31.387 C32.4333086,30.3440362 35.322086,29.5803056 38.265,29.107 C39.6139923,28.9551444 40.8928303,29.7422486 41.365,31.015 C42.3624411,33.5682159 44.1730538,35.7218328 46.517,37.143 C51.735,40.275 52,42.571 52,43 L52,46 C51.9999434,46.2651948 51.8945494,46.5195073 51.707,46.707 L50.414,48 L54,48 L54,40.825 C54.0002088,40.5594587 53.8947946,40.3047377 53.707,40.117 L51.113,37.527 C49.9206913,36.3114846 49.41647,34.5795612 49.77,32.914 C49.9866709,31.0440577 49.7489436,29.1494431 49.077,27.391 L49.057,27.333 C49.0386445,27.274397 49.0262484,27.2140917 49.02,27.153 L49.02,27.132 C48.9594959,26.7074392 49.1781033,26.291942 49.5622675,26.1013366 C49.9464318,25.9107311 50.4095268,25.9879975 50.711,26.293 C50.7492252,26.3416968 50.7827106,26.3939341 50.811,26.449 C50.8395007,26.478725 50.8662142,26.5101134 50.891,26.543 C53.252,30.779 55.074,32.623 56.247,33.423 C55.3737764,31.3918788 54.3471413,29.4302069 53.176,27.555 C52.848,27.074 52.526,26.52 52.184,25.926 Z" id="Shape"/></g></g></svg>
