<?xml version="1.0"?>
<svg xmlns="http://www.w3.org/2000/svg" id="Layer_1" data-name="Layer 1" viewBox="0 0 512 512" width="512px" height="512px"><g><title class="active-path" style="fill:#FFB200" data-old_color="#FFE800">Menu</title><path d="M419.5,89H313V17.344a7.976,7.976,0,0,0-10.794-7.486L89.673,89.982c-.026.01-.047.026-.074.036a8.132,8.132,0,0,0-1,.468c-.044.025-.083.053-.127.078a7.963,7.963,0,0,0-.808.542c-.053.04-.108.078-.16.12a7.99,7.99,0,0,0-.768.7c-.052.055-.1.113-.154.17a7.7,7.7,0,0,0-.607.752c-.023.031-.047.06-.069.091a7.971,7.971,0,0,0-.543.925c-.03.06-.058.121-.088.182a7.919,7.919,0,0,0-.653,2.075c-.014.079-.275.159-.287.239-.05.362-.335.729-.335,1.105V494.656A8.741,8.741,0,0,0,92.5,503h327c4.418,0,7.5-3.926,7.5-8.344V97.468C427,93.05,423.918,89,419.5,89ZM297,89H136.4L297,28.91ZM411,487H100V105H411Z" data-original="#000000" class="active-path" data-old_color="#FFE800" fill="#FFB200"/><path d="M144.008,368h134.7a8,8,0,0,0,0-16h-134.7a8,8,0,0,0,0,16Z" data-original="#000000" class="active-path" data-old_color="#FFE800" fill="#FFB200"/><path d="M144.008,426H370.281a8,8,0,0,0,0-16H144.008a8,8,0,0,0,0,16Z" data-original="#000000" class="active-path" data-old_color="#FFE800" fill="#FFB200"/><path d="M170.983,312h87.246C275.873,312,290,297.321,290,279.677V276h22.016A22.764,22.764,0,0,0,335,253.294V216.018A23.029,23.029,0,0,0,312.016,193H290V171.8a7.64,7.64,0,0,0-7.772-7.8H146.985A7.819,7.819,0,0,0,139,171.8V279.677C139,297.321,153.34,312,170.983,312ZM312.016,209A7.01,7.01,0,0,1,319,216.018v37.276A6.749,6.749,0,0,1,312.016,260H290V209ZM155,180H274v99.677C274,288.5,267.051,296,258.229,296H170.983A16.284,16.284,0,0,1,155,279.677Z" data-original="#000000" class="active-path" data-old_color="#FFE800" fill="#FFB200"/></g> </svg>
